<?xml version="1.0" encoding="utf-8"?>
<!-- Generator: Adobe Illustrator 27.3.1, SVG Export Plug-In . SVG Version: 6.00 Build 0)  -->
<svg version="1.1" id="Layer_1" xmlns="http://www.w3.org/2000/svg" xmlns:xlink="http://www.w3.org/1999/xlink" x="0px" y="0px"
	 viewBox="0 0 100 100" style="enable-background:new 0 0 100 100;" xml:space="preserve">
<style type="text/css">
	.st0{stroke:#010101;stroke-width:3;stroke-linecap:round;stroke-linejoin:round;stroke-miterlimit:10;}
</style>
<path class="st0" d="M44.4,4.9L4.5,49.3C3,51,2.1,53.2,2.1,55.5v36.3c0,3.3,2.6,6,5.8,6h23.5c3.2,0,5.8-2.7,5.8-6V60
	c0-6.9,4.5-13.4,11.1-14.3c8-1.2,14.8,5.2,14.8,13.3v32.9c0,3.3,2.6,6,5.8,6h23.5c3.2,0,5.8-2.7,5.8-6V55.5c0-2.3-0.8-4.5-2.3-6.2
	L55.7,4.9C52.7,1.5,47.4,1.5,44.4,4.9z"/>
</svg>
