<?xml version="1.0" encoding="utf-8"?>
<!-- Generator: Adobe Illustrator 27.3.1, SVG Export Plug-In . SVG Version: 6.00 Build 0)  -->
<svg version="1.1" id="Layer_1" xmlns="http://www.w3.org/2000/svg" xmlns:xlink="http://www.w3.org/1999/xlink" x="0px" y="0px"
	 viewBox="0 0 100 100" style="enable-background:new 0 0 100 100;" xml:space="preserve">
<style type="text/css">
	.st0{stroke:#010101;stroke-width:3;stroke-linecap:round;stroke-linejoin:round;stroke-miterlimit:10;}
</style>
<path class="st0" d="M47.45,29.93L29.1,49.67c-0.7,0.75-1.08,1.74-1.08,2.76v16.13c0,1.46,1.19,2.65,2.65,2.65h10.79
	c1.46,0,2.65-1.19,2.65-2.65V54.39c0-3.05,2.07-5.93,5.09-6.35c3.67-0.52,6.82,2.32,6.82,5.89v14.63c0,1.46,1.19,2.65,2.65,2.65
	h10.79c1.46,0,2.65-1.19,2.65-2.65V52.43c0-1.02-0.39-2.01-1.08-2.76L52.67,29.93C51.26,28.41,48.86,28.41,47.45,29.93z"/>
</svg>
